<?xml version="1.0" encoding="UTF-8"?>
<svg width="1200pt" height="1200pt" version="1.1" viewBox="0 0 1200 1200" xmlns="http://www.w3.org/2000/svg">
 <g fill="#000" fill-rule="evenodd">
  <path d="m921.6 604.8c-8.3984-39.602-24-76.801-45.602-110.4-98.398-151.2-267.6-223.2-441.6-160.8-4.8008 1.1992-8.3984 6-9.6016 10.801-1.1992 4.8008 0 10.801 3.6016 14.398 72 85.199 190.8 118.8 292.8 64.801 7.1992-3.6016 10.801-13.199 6-21.602-3.6016-7.1992-14.398-10.801-21.602-6-81.598 42-175.2 20.398-237.6-39.602 151.2-44.398 295.2 24 380.4 154.8 20.398 30 33.602 63.602 42 99.602 16.801 82.801-8.3984 163.2-50.398 235.2-54 93.602-139.2 177.6-223.2 247.2-28.801-141.6-232.8-157.2-294-278.4-18-36-22.801-76.801-13.199-115.2 8.3984-34.801 30-64.801 58.801-85.199 58.801-40.801 126-24 178.8 18 10.801 8.3984 20.398 16.801 30 26.398-10.801 19.199-19.199 38.398-27.602 58.801-18 49.199-33.602 133.2-9.6016 182.4 10.801 26.398 36 44.398 63.602 45.602 36 0 60-28.801 70.801-60 25.199-74.398-7.1992-162-52.801-222-2.3984-2.3984-3.6016-4.8008-6-7.1992 19.199-31.199 45.602-56.398 78-73.199 92.398-43.199 181.2 33.602 172.8 129.6 32.398-120-75.602-212.4-187.2-158.4-34.801 18-64.801 44.398-87.602 76.801-8.3984-8.3984-18-16.801-27.602-24-33.602-27.602-74.398-43.199-116.4-46.801-36-2.3984-70.801 7.1992-100.8 28.801-36 25.199-61.199 62.398-72 104.4-12 46.801-6 94.801 15.602 138 27.602 55.199 78 90 130.8 121.2 27.602 16.801 56.398 32.398 82.801 50.398 24 14.398 44.398 33.602 60 56.398 13.199 20.398 20.398 43.199 20.398 67.199 0 6 3.6016 12 8.3984 14.398 6 2.3984 12 2.3984 16.801-1.1992 96-75.602 193.2-168 254.4-274.8 49.199-81.598 75.602-170.4 57.602-260.4zm-320.4 79.199c38.398 51.602 66 127.2 45.602 189.6-14.398 42-54 55.199-75.602 10.801-19.199-40.801-4.8008-116.4 10.801-157.2 4.8008-14.402 12-28.805 19.199-43.203z"/>
  <path d="m739.2 342c2.3984 8.3984 12 12 20.398 9.6016h1.1992c8.3984-2.3984 12-12 9.6016-20.398-22.801-64.801-16.801-133.2 24-188.4 12-15.602 26.398-30 42-42 18 43.199 22.801 90 13.199 135.6-9.6016 39.602-31.199 74.398-62.398 102l-1.1992 1.1992c-6 6-6 16.801 1.1992 22.801 6 6 16.801 6 22.801-1.1992 36-31.199 61.199-72 72-117.6 14.398-58.801 2.3984-118.8-21.602-174 0 0 0-1.1992-1.1992-1.1992-4.8008-7.1992-14.398-9.6016-21.602-6-26.398 15.602-49.199 36-67.199 61.199-48 62.395-58.797 145.2-31.199 218.39z"/>
 </g>
</svg>
