<svg xmlns="http://www.w3.org/2000/svg" fill="#000" version="1.1" viewBox="-5.0 -10.0 110.0 135.0">
 <g>
  <path d="m86.781 19.09c-5.1719-3.9297-11.289-4.7812-17.238-2.3906-5.8281 2.3398-10.469 7.5391-11.27 12.641-0.070313 0.44141 0.16016 0.87891 0.57031 1.0703s0.89062 0.078125 1.1797-0.26953c3.3398-3.9609 8.0508-5.6992 12.309-4.5312 3.5312 0.96875 6 3.7695 6.6289 7.5 0.53906 3.2383-0.17188 5.8711-2.1016 7.8086-2.9492 2.9688-8.5117 4.0391-15.25 2.9492-3.0312-0.48828-6.3516-1.8086-9.8711-3.1992-9.4805-3.7617-21.27-8.4297-33.801 1.5312-0.37891 0.30859-0.48828 0.85156-0.25 1.2695 0.23828 0.42969 0.76172 0.62109 1.2188 0.44922 10.461-3.8789 22.191 0.44922 25.539 1.8594 14.641 6.1992 22.199 8.8086 29.5 8.8086 1.4609 0 2.9102-0.10156 4.3984-0.30078 7.3789-0.98828 13.48-6.6992 15.559-14.539 2.1016-7.9414-0.57031-15.66-7.1289-20.648zm5.1992 20.141c-1.8711 7.0586-7.3203 12.18-13.891 13.07-8.0781 1.0898-14.23-0.48047-32.859-8.3711-3.1016-1.3086-9.5898-3.6211-16.879-3.6211-1.3906 0-2.8203 0.078125-4.25 0.28125 9.7383-4.8711 18.789-1.2812 26.898 1.9414 3.6211 1.4414 7.0391 2.7891 10.289 3.3203 7.3789 1.1992 13.57-0.078124 16.98-3.5117 2.3789-2.3906 3.3008-5.6914 2.6484-9.5508-0.75-4.5195-3.7695-7.9219-8.0703-9.1016-3.7812-1.0391-7.8398-0.17188-11.25 2.2812 1.7695-3.0898 4.9883-5.9219 8.6797-7.3984 3.0508-1.2305 9.0898-2.5781 15.281 2.1289 5.8984 4.4883 8.3008 11.422 6.4102 18.551z"/>
  <path d="m81.09 56.09c-10.461 3.8789-22.191-0.44922-25.539-1.8594-17.57-7.4414-24.93-9.7109-33.898-8.5117-7.3789 0.98828-13.48 6.6992-15.559 14.539-2.1016 7.9414 0.57031 15.66 7.1289 20.648 3.2383 2.4688 6.8594 3.7188 10.578 3.7188 2.1992 0 4.4414-0.44141 6.6484-1.3281 5.8281-2.3398 10.469-7.5391 11.27-12.641 0.070312-0.44141-0.16016-0.87891-0.57031-1.0703-0.41016-0.19141-0.89063-0.078126-1.1797 0.26953-3.3398 3.9609-8.0508 5.6992-12.309 4.5312-3.5312-0.96875-6-3.7695-6.6289-7.5-0.53906-3.2383 0.17188-5.8711 2.1016-7.8086 2.9492-2.9688 8.5117-4.0391 15.25-2.9492 3.0312 0.48828 6.3516 1.8086 9.8711 3.1992 9.4805 3.7617 21.27 8.4297 33.801-1.5312 0.37891-0.30859 0.48828-0.85156 0.25-1.2695-0.23828-0.42969-0.76172-0.62109-1.2188-0.44922zm-32.09 1.3906c-3.6211-1.4414-7.0391-2.7891-10.289-3.3203-7.3789-1.1992-13.57 0.078125-16.98 3.5117-2.3789 2.3906-3.3008 5.6914-2.6484 9.5508 0.75 4.5195 3.7695 7.9219 8.0703 9.1016 3.7812 1.0391 7.8398 0.17188 11.25-2.2812-1.7695 3.0898-4.9883 5.9219-8.6797 7.3984-3.0508 1.2305-9.0898 2.5781-15.281-2.1289-5.8984-4.4883-8.3008-11.422-6.4102-18.551 1.8711-7.0586 7.3203-12.18 13.891-13.07 1.4688-0.19922 2.8789-0.30859 4.3086-0.30859 6.4297 0 13.309 2.2188 28.551 8.6797 3.6992 1.5703 12.211 4.5508 21.129 3.3516-9.7383 4.8711-18.789 1.2812-26.898-1.9414z"/>
 </g>
<text x="0.0" y="117.5" font-size="5.0" font-weight="bold" font-family="Arbeit Regular, Helvetica, Arial-Unicode, Arial, Sans-serif" fill="#000000">Created by Visual Glow</text><text x="0.0" y="122.5" font-size="5.0" font-weight="bold" font-family="Arbeit Regular, Helvetica, Arial-Unicode, Arial, Sans-serif" fill="#000000">from Noun Project</text></svg>